<svg width="290" height="290" viewBox="0 0 290 290" fill="none" xmlns="http://www.w3.org/2000/svg">
<path d="M290 145C290 166.58 289.74 195.22 289.22 209.73C288.7 224.23 287.92 225.66 286.87 232.02C285.82 238.38 284.51 243.18 282.9 247.86C281.3 252.54 279.43 256.45 277.24 260.09C275.04 263.73 272.58 266.86 269.72 269.72C266.86 272.58 263.73 275.04 260.09 277.24C256.45 279.43 252.54 281.3 247.86 282.9C243.18 284.51 238.38 285.82 232.02 286.87C225.66 287.92 224.23 288.7 209.73 289.22C195.22 289.74 166.58 290 145 290C123.42 290 94.78 289.74 80.27 289.22C65.77 288.7 64.34 287.92 57.98 286.87C51.62 285.82 46.82 284.51 42.14 282.9C37.46 281.3 33.55 279.43 29.91 277.24C26.27 275.04 23.14 272.58 20.28 269.72C17.42 266.86 14.96 263.73 12.76 260.09C10.57 256.45 8.70001 252.54 7.10001 247.86C5.49001 243.18 4.18 238.38 3.13 232.02C2.08 225.66 1.3 224.23 0.779999 209.73C0.259999 195.22 0 166.58 0 145C0 123.42 0.259999 94.78 0.779999 80.27C1.3 65.77 2.08 64.34 3.13 57.98C4.18 51.62 5.49001 46.82 7.10001 42.14C8.70001 37.46 10.57 33.55 12.76 29.91C14.96 26.27 17.42 23.14 20.28 20.28C23.14 17.42 26.27 14.96 29.91 12.76C33.55 10.57 37.46 8.69998 42.14 7.09998C46.82 5.48998 51.62 4.18 57.98 3.13C64.34 2.08 65.77 1.30003 80.27 0.780029C94.78 0.260029 123.42 0 145 0C166.58 0 195.22 0.260029 209.73 0.780029C224.23 1.30003 225.66 2.08 232.02 3.13C238.38 4.18 243.18 5.48998 247.86 7.09998C252.54 8.69998 256.45 10.57 260.09 12.76C263.73 14.96 266.86 17.42 269.72 20.28C272.58 23.14 275.04 26.27 277.24 29.91C279.43 33.55 281.3 37.46 282.9 42.14C284.51 46.82 285.82 51.62 286.87 57.98C287.92 64.34 288.7 65.77 289.22 80.27C289.74 94.78 290 123.42 290 145Z" fill="white"/>
<path d="M36.25 143.878L40.5523 137.586L41.0313 137.012L41.5074 136.415L41.9864 135.842L42.4653 135.268L42.9415 134.717L43.4205 134.144L43.8994 133.596L44.3756 133.046L44.8546 132.521L45.3336 131.947L45.8097 131.445L46.2887 130.894L46.7677 130.37L47.2438 129.891L47.7228 129.34L48.2018 128.815L48.6778 128.336L49.1568 127.86L49.6359 127.381L50.1119 126.902L50.5909 126.425L51.0699 125.947L51.5461 125.468L52.025 124.991L52.504 124.607L52.9804 124.154L53.4595 123.675L53.9378 123.294L54.4144 122.84L54.8934 122.456L55.3725 122.052L55.8483 121.644L56.3274 121.237L56.8064 120.832L57.2822 120.448L57.7613 120.067L58.2404 119.66L58.7169 119.278L59.1952 118.897L59.6743 118.512L60.1509 118.13L60.63 117.772L61.109 117.391L61.5848 117.032L62.0639 116.648L62.543 116.289L63.0187 115.931L63.4978 115.572L63.9769 115.213L64.4526 114.855L64.9317 114.522L65.4108 114.164L65.8874 113.829L66.3656 113.47L66.8447 113.134L67.3213 112.801L67.8004 112.489L68.2795 112.13L68.7552 111.798L69.2343 111.485L69.7134 111.175L70.1891 110.84L70.6682 110.53L71.1473 110.221L71.623 109.885L72.1021 109.575L72.5812 109.262L73.0578 108.975L73.5369 108.666L74.0151 108.356L74.4917 108.069L74.9708 107.757L75.4499 107.47L75.9256 107.16L76.4047 106.873L76.8838 106.586L77.3596 106.299L77.8386 106.012L78.3177 105.726L78.7943 105.462L79.2726 105.175L79.7516 104.914L80.2282 104.65L80.7073 104.363L81.1856 104.099L81.6621 103.861L82.1412 103.574L82.6203 103.336L83.0961 103.096L83.5752 102.857L84.0542 102.571L84.53 102.307L85.0091 102.069L85.4882 101.831L85.9647 101.589L86.443 101.375L86.9221 101.186L87.3987 100.944L87.8777 100.706L88.3568 100.469L88.8326 100.277L89.3117 100.038L89.7907 99.8234L90.2665 99.6306L90.7456 99.4161L91.2247 99.2007L91.7004 99.0088L92.1795 98.7934L92.6586 98.604L93.1352 98.412L93.6143 98.22L94.0925 98.0305L94.5691 97.8386L95.0482 97.6458L95.5272 97.4572L96.003 97.2877L96.4821 97.0983L96.9612 96.9288L97.4369 96.7394L97.916 96.5966L98.3951 96.4038L98.8708 96.2377L99.3499 96.0683L99.829 95.9022L100.306 95.7586L100.785 95.5926L101.263 95.4231L101.74 95.2796L102.219 95.136L102.698 94.9933L103.173 94.8264L103.653 94.6828L104.132 94.5626L104.607 94.419L105.086 94.2763L105.566 94.1094L106.042 93.9892L106.52 93.8715L106.999 93.728L107.476 93.6078L107.955 93.4876L108.434 93.3699L108.91 93.2489L109.389 93.1053L109.868 92.9851L110.344 92.8908L110.823 92.7698L111.302 92.6529L111.778 92.5319L112.257 92.4117L112.736 92.3166L113.213 92.1964L113.691 92.1021L114.17 92.0069L114.646 91.9093L115.126 91.815L115.605 91.6948L116.08 91.5996L116.559 91.5278L117.039 91.4335L117.514 91.3359L117.993 91.2416L118.472 91.1698L118.948 91.0746L119.427 91.0037L119.906 90.906L120.383 90.8109L120.862 90.7625L121.34 90.6907L121.817 90.5964L122.296 90.5246L122.775 90.4528L123.251 90.381L123.73 90.3318L124.209 90.2375L124.685 90.1891L125.164 90.0939L125.643 90.0714L126.119 89.9737L126.598 89.9504L127.077 89.856L127.553 89.8302L128.032 89.7359H128.512L128.987 89.6407L129.466 89.6148L129.945 89.5431L130.421 89.4972L130.9 89.4717L131.379 89.377H131.855L132.334 89.3283L132.813 89.2566H133.29L133.768 89.1849L134.247 89.139H134.724L135.203 89.0903L135.682 89.0186H136.158H136.637L137.116 88.9468L137.592 88.898H138.071H138.55L139.026 88.8751L139.505 88.7804H139.984H140.46H140.939H141.418L141.894 88.7087L142.373 88.66H142.852H143.328H143.807H144.286H144.762H145.241H145.72H146.197H146.675H147.154H147.631H148.11H148.588L149.065 88.683L149.544 88.7804H150.023H150.499H150.978H151.457L151.932 88.8264L152.412 88.898H152.891H153.367L153.846 88.9468L154.325 89.0186H154.801L155.28 89.0414L155.759 89.139H156.235L156.714 89.1849L157.193 89.2566H157.669L158.148 89.3541L158.627 89.377L159.103 89.4487L159.582 89.4972L160.061 89.5689L160.538 89.6148L161.017 89.6866L161.495 89.7359L161.972 89.8076L162.451 89.8786L162.93 89.9737L163.406 90.0221L163.885 90.0939L164.364 90.1657L164.839 90.2375L165.319 90.3318L165.798 90.4036L166.273 90.4754L166.752 90.573L167.232 90.6673L167.708 90.7391L168.187 90.8343L168.665 90.9319L169.142 91.0262L169.621 91.1205L170.1 91.2182L170.576 91.3133L171.055 91.4077L171.534 91.5053L172.01 91.623L172.489 91.7432L172.968 91.8383L173.445 91.9585L173.923 92.0787L174.402 92.1739L174.879 92.294L175.358 92.4117L175.837 92.5319L176.312 92.6529L176.792 92.7957L177.271 92.9134L177.746 93.0344L178.225 93.1546L178.705 93.2981L179.18 93.4417L179.659 93.5844L180.138 93.7021L180.615 93.8456L181.094 93.9892L181.572 94.1094L182.049 94.2763L182.528 94.419L183.007 94.5626L183.483 94.7062L183.962 94.8756L184.441 95.0417L184.917 95.1853L185.396 95.3513L185.875 95.5208L186.351 95.6643L186.83 95.8304L187.309 95.9965L187.785 96.1401L188.265 96.3321L188.743 96.499L189.219 96.6684L189.698 96.857L190.178 97.0265L190.653 97.2159L191.132 97.3854L191.611 97.574L192.087 97.7668L192.566 97.9588L193.045 98.1482L193.522 98.3402L194 98.5322L194.479 98.7216L194.956 98.9136L195.435 99.1056L195.914 99.3209L196.39 99.5104L196.869 99.7257L197.348 99.9177L197.824 100.156L198.303 100.348L198.782 100.586L199.258 100.801L199.737 100.994L200.216 101.231L200.692 101.473L201.171 101.687L201.65 101.902L202.126 102.14L202.605 102.378L203.084 102.619L203.56 102.857L204.039 103.096L204.518 103.336L204.994 103.574L205.473 103.813L205.952 104.077L206.428 104.34L206.907 104.578L207.386 104.842L207.863 105.129L208.342 105.367L208.82 105.631L209.297 105.892L209.776 106.179L210.255 106.443L210.731 106.729L211.21 106.994L211.689 107.28L212.165 107.567L212.644 107.854L213.123 108.141L213.599 108.45L214.078 108.737L214.557 109.047L215.033 109.334L215.512 109.646L215.991 109.933L216.467 110.243L216.946 110.579L217.425 110.888L217.901 111.198L218.38 111.533L218.859 111.844L219.335 112.179L219.814 112.515L220.293 112.847L220.77 113.183L221.248 113.542L221.727 113.877L222.204 114.21L222.683 114.546L223.162 114.904L223.638 115.263L224.117 115.621L224.596 115.98L225.072 116.361L225.551 116.72L226.03 117.104L226.505 117.485L226.985 117.867L227.464 118.226L227.94 118.633L228.419 119.014L228.898 119.398L229.374 119.803L229.853 120.21L230.332 120.592L230.808 120.999L231.287 121.406L231.766 121.81L232.242 122.241L232.721 122.648L233.2 123.078L233.676 123.509L234.155 123.916L234.634 124.392L235.111 124.871L235.59 125.35L236.068 125.732L236.545 126.185L237.024 126.664L237.503 127.143L237.978 127.619L238.458 128.098L238.937 128.577L239.412 129.124L239.891 129.652L240.371 130.128L240.847 130.608L241.325 131.087L241.804 131.66L242.281 132.162L242.76 132.638L243.239 133.212L243.715 133.713L244.194 134.287L244.673 134.789L245.149 135.363L245.628 135.913L246.107 136.464L246.583 137.038L247.062 137.611L247.541 138.159L248.018 138.759L248.497 139.355L248.975 139.929L249.451 140.502L253.753 146.778L249.451 153.011L248.975 153.561L248.497 154.104L248.018 154.643L247.541 155.179L247.062 155.709L246.583 156.238L246.107 156.759L245.628 157.276L245.149 157.792L244.673 158.299L244.194 158.804L243.715 159.307L243.239 159.803L242.76 160.296L242.281 160.787L241.804 161.272L241.325 161.753L240.847 162.229L240.371 162.702L239.891 163.17L239.412 163.634L238.937 164.096L238.458 164.553L237.978 165.006L237.503 165.456L237.024 165.9L236.545 166.342L236.068 166.781L235.59 167.214L235.111 167.644L234.634 168.071L234.155 168.496L233.676 168.915L233.2 169.331L232.721 169.744L232.242 170.151L231.766 170.555L231.287 170.957L230.808 171.356L230.332 171.751L229.853 172.142L229.374 172.529L228.898 172.913L228.419 173.292L227.94 173.67L227.464 174.043L226.985 174.413L226.505 174.78L226.03 175.145L225.551 175.506L225.072 175.862L224.596 176.218L224.117 176.567L223.638 176.914L223.162 177.258L222.683 177.6L222.204 177.939L221.727 178.271L221.248 178.604L220.77 178.933L220.293 179.257L219.814 179.579L219.335 179.9L218.859 180.215L218.38 180.528L217.901 180.838L217.425 181.145L216.946 181.452L216.467 181.753L215.991 182.051L215.512 182.346L215.033 182.639L214.557 182.929L214.078 183.216L213.599 183.5L213.123 183.781L212.644 184.059L212.165 184.334L211.689 184.607L211.21 184.876L210.731 185.146L210.255 185.41L209.776 185.671L209.297 185.932L208.82 186.187L208.342 186.443L207.863 186.692L207.386 186.942L206.907 187.188L206.428 187.432L205.952 187.673L205.473 187.911L204.994 188.146L204.518 188.378L204.039 188.611L203.56 188.837L203.084 189.064L202.605 189.288L202.126 189.508L201.65 189.726L201.171 189.942L200.692 190.157L200.216 190.369L199.737 190.576L199.258 190.782L198.782 190.986L198.303 191.189L197.824 191.387L197.348 191.585L196.869 191.78L196.39 191.972L195.914 192.162L195.435 192.351L194.956 192.537L194.479 192.718L194 192.901L193.522 193.08L193.045 193.258L192.566 193.432L192.087 193.604L191.611 193.773L191.132 193.943L190.653 194.106L190.178 194.27L189.698 194.434L189.219 194.591L188.743 194.749L188.265 194.904L187.785 195.059L187.309 195.211L186.83 195.359L186.351 195.506L185.875 195.65L185.396 195.792L184.917 195.933L184.441 196.074L183.962 196.211L183.483 196.347L183.007 196.478L182.528 196.61L182.049 196.739L181.572 196.866L181.094 196.992L180.615 197.115L180.138 197.236L179.659 197.356L179.18 197.471L178.705 197.589L178.225 197.7L177.746 197.812L177.271 197.924L176.792 198.03L176.312 198.136L175.837 198.242L175.358 198.346L174.879 198.446L174.402 198.543L173.923 198.641L173.445 198.735L172.968 198.831L172.489 198.922L172.01 199.011L171.534 199.1L171.055 199.186L170.576 199.269L170.1 199.352L169.621 199.432L169.142 199.512L168.665 199.59L168.187 199.665L167.708 199.739L167.232 199.811L166.752 199.883L166.273 199.951L165.798 200.017L165.319 200.083L164.839 200.147L164.364 200.207L163.885 200.267L163.406 200.327L162.93 200.385L162.451 200.439L161.972 200.494L161.495 200.546L161.017 200.594L160.538 200.643L160.061 200.688L159.582 200.734L159.103 200.778L158.627 200.82L158.148 200.861L157.669 200.898L157.193 200.935L156.714 200.97L156.235 201.004L155.759 201.036L155.28 201.067L154.801 201.096L154.325 201.122L153.846 201.147L153.367 201.173L152.891 201.193L152.412 201.217L151.932 201.233L151.457 201.251L150.978 201.269L150.499 201.283L150.023 201.294L149.544 201.305L149.065 201.314L148.588 201.323L148.11 201.329L147.631 201.331L147.154 201.334L146.675 201.337H146.197L145.72 201.334L145.241 201.331L144.762 201.325L144.286 201.319L143.807 201.311L143.328 201.299L142.852 201.289L142.373 201.277L141.894 201.263L141.418 201.245L140.939 201.228L140.46 201.208L139.984 201.188L139.505 201.165L139.026 201.139L138.55 201.113L138.071 201.085L137.592 201.056L137.116 201.024L136.637 200.993L136.158 200.958L135.682 200.924L135.203 200.886L134.724 200.846L134.247 200.806L133.768 200.764L133.29 200.72L132.813 200.674L132.334 200.626L131.855 200.577L131.379 200.528L130.9 200.474L130.421 200.422L129.945 200.365L129.466 200.307L128.987 200.25L128.512 200.189L128.032 200.127L127.553 200.063L127.077 199.997L126.598 199.929L126.119 199.86L125.643 199.791L125.164 199.716L124.685 199.642L124.209 199.568L123.73 199.49L123.251 199.41L122.775 199.329L122.296 199.246L121.817 199.163L121.34 199.077L120.862 198.988L120.383 198.899L119.906 198.807L119.427 198.713L118.948 198.618L118.472 198.52L117.993 198.423L117.514 198.322L117.039 198.22L116.559 198.113L116.08 198.01L115.605 197.901L115.126 197.792L114.646 197.68L114.17 197.565L113.691 197.451L113.213 197.333L112.736 197.215L112.257 197.092L111.778 196.972L111.302 196.846L110.823 196.719L110.344 196.59L109.868 196.461L109.389 196.327L108.91 196.194L108.434 196.057L107.955 195.919L107.476 195.778L106.999 195.635L106.52 195.492L106.042 195.345L105.566 195.196L105.086 195.047L104.607 194.895L104.132 194.74L103.653 194.582L103.173 194.424L102.698 194.264L102.219 194.101L101.74 193.937L101.263 193.768L100.785 193.599L100.306 193.43L99.829 193.254L99.3499 193.08L98.8708 192.901L98.3951 192.721L97.916 192.54L97.4369 192.354L96.9612 192.168L96.4821 191.981L96.003 191.789L95.5272 191.597L95.0482 191.399L94.5691 191.204L94.0925 191.003L93.6143 190.8L93.1352 190.596L92.6586 190.389L92.1795 190.179L91.7004 189.967L91.2247 189.752L90.7456 189.538L90.2665 189.316L89.7907 189.095L89.3117 188.872L88.8326 188.645L88.3568 188.418L87.8777 188.186L87.3987 187.951L86.9221 187.716L86.443 187.478L85.9647 187.237L85.4882 186.993L85.0091 186.747L84.53 186.497L84.0542 186.247L83.5752 185.992L83.0961 185.737L82.6203 185.476L82.1412 185.215L81.6621 184.951L81.1856 184.682L80.7073 184.412L80.2282 184.139L79.7516 183.864L79.2726 183.586L78.7943 183.304L78.3177 183.021L77.8386 182.734L77.3596 182.444L76.8838 182.154L76.4047 181.859L75.9256 181.561L75.4499 181.26L74.9708 180.956L74.4917 180.649L74.0151 180.339L73.5369 180.026L73.0578 179.71L72.5812 179.392L72.1021 179.071L71.623 178.747L71.1473 178.42L70.6682 178.087L70.1891 177.755L69.7134 177.419L69.2343 177.078L68.7552 176.737L68.2795 176.389L67.8004 176.04L67.3213 175.687L66.8447 175.331L66.3656 174.972L65.8874 174.608L65.4108 174.244L64.9317 173.874L64.4526 173.501L63.9769 173.125L63.4978 172.747L63.0187 172.366L62.543 171.978L62.0639 171.591L61.5848 171.198L61.109 170.802L60.63 170.401L60.1509 169.999L59.6743 169.592L59.1952 169.181L58.7169 168.768L58.2404 168.35L57.7613 167.929L57.2822 167.504L56.8064 167.076L56.3274 166.643L55.8483 166.21L55.3725 165.769L54.8934 165.327L54.4144 164.88L53.9378 164.429L53.4595 163.973L52.9804 163.514L52.504 163.053L52.025 162.588L51.5461 162.117L51.0699 161.644L50.5909 161.165L50.1119 160.683L49.6359 160.196L49.1568 159.708L48.6778 159.212L48.2018 158.716L47.7228 158.211L47.2438 157.706L46.7677 157.195L46.2887 156.679L45.8097 156.16L45.3336 155.638L44.8546 155.11L44.3756 154.579L43.8994 154.044L43.4205 153.501L42.9415 152.959L42.4653 152.408L41.9864 151.855L41.5074 151.298L41.0313 150.733L40.5523 150.168L36.25 143.878Z" fill="#FF0033"/>
<path d="M212.36 129.558C212.36 143.387 201.15 154.597 187.321 154.597C173.491 154.597 162.281 143.387 162.281 129.558C162.281 115.728 173.491 104.518 187.321 104.518C201.15 104.518 212.36 115.728 212.36 129.558Z" fill="white"/>
</svg>
