<svg width="290" height="290" viewBox="0 0 290 290" fill="none" xmlns="http://www.w3.org/2000/svg">
<path d="M290 145C290 166.58 289.74 195.22 289.22 209.73C288.7 224.23 287.92 225.66 286.87 232.02C285.82 238.38 284.51 243.18 282.9 247.86C281.3 252.54 279.43 256.45 277.24 260.09C275.04 263.73 272.58 266.86 269.72 269.72C266.86 272.58 263.73 275.04 260.09 277.24C256.45 279.43 252.54 281.3 247.86 282.9C243.18 284.51 238.38 285.82 232.02 286.87C225.66 287.92 224.23 288.7 209.73 289.22C195.22 289.74 166.58 290 145 290C123.42 290 94.78 289.74 80.27 289.22C65.77 288.7 64.34 287.92 57.98 286.87C51.62 285.82 46.82 284.51 42.14 282.9C37.46 281.3 33.55 279.43 29.91 277.24C26.27 275.04 23.14 272.58 20.28 269.72C17.42 266.86 14.96 263.73 12.76 260.09C10.57 256.45 8.69998 252.54 7.09998 247.86C5.48998 243.18 4.18 238.38 3.13 232.02C2.08 225.66 1.30003 224.23 0.780029 209.73C0.260029 195.22 0 166.58 0 145C0 123.42 0.260029 94.78 0.780029 80.27C1.30003 65.77 2.08 64.34 3.13 57.98C4.18 51.62 5.48998 46.82 7.09998 42.14C8.69998 37.46 10.57 33.55 12.76 29.91C14.96 26.27 17.42 23.14 20.28 20.28C23.14 17.42 26.27 14.96 29.91 12.76C33.55 10.57 37.46 8.69998 42.14 7.09998C46.82 5.48998 51.62 4.18 57.98 3.13C64.34 2.08 65.77 1.30003 80.27 0.780029C94.78 0.260029 123.42 0 145 0C166.58 0 195.22 0.260029 209.73 0.780029C224.23 1.30003 225.66 2.08 232.02 3.13C238.38 4.18 243.18 5.48998 247.86 7.09998C252.54 8.69998 256.45 10.57 260.09 12.76C263.73 14.96 266.86 17.42 269.72 20.28C272.58 23.14 275.04 26.27 277.24 29.91C279.43 33.55 281.3 37.46 282.9 42.14C284.51 46.82 285.82 51.62 286.87 57.98C287.92 64.34 288.7 65.77 289.22 80.27C289.74 94.78 290 123.42 290 145Z" fill="#05E3F7"/>
<path d="M180.173 80.3929L213.501 113.723L217.894 118.116V177.574L187.898 156.897V130.54L163.354 105.998H101.727V191.681L119.64 182.05C135.076 173.749 153.798 174.458 168.563 183.9L216.458 214.528H160.783L152.403 209.169C146.803 205.588 139.701 205.321 133.846 208.469L122.577 214.528H71.73V76H175.78L180.173 80.3929Z" fill="#0C1214"/>
</svg>
