<svg width="129" height="129" viewBox="0 0 129 129" fill="none" xmlns="http://www.w3.org/2000/svg">
<path d="M0 34.3003C0 15.3568 15.3568 0 34.3003 0H93.9397C112.883 0 128.24 15.3568 128.24 34.3003V93.9397C128.24 112.883 112.883 128.24 93.9397 128.24H34.3003C15.3568 128.24 0 112.883 0 93.9397V34.3003Z" fill="#05E3F7"/>
<path d="M80.3279 35.3105L95.1531 50.1367L97.1072 52.0908V78.5391L83.7644 69.3418V57.6172L72.8464 46.7002H45.4333V84.8145L53.4011 80.5303C60.2677 76.838 68.5957 77.1532 75.1638 81.3535L96.4685 94.9775H71.7029L67.9753 92.5938C65.4841 91.0008 62.3249 90.8819 59.7205 92.2822L54.7078 94.9775H32.0896V33.3564H78.3738L80.3279 35.3105Z" fill="#0C1214"/>
</svg>
