<svg width="537" height="129" viewBox="0 0 537 129" fill="none" xmlns="http://www.w3.org/2000/svg">
<g clip-path="url(#clip0_159_31)">
<path d="M0 34.3003C0 15.3568 15.3568 0 34.3003 0H93.9397C112.883 0 128.24 15.3568 128.24 34.3003V93.9397C128.24 112.883 112.883 128.24 93.9397 128.24H34.3003C15.3568 128.24 0 112.883 0 93.9397V34.3003Z" fill="#05E3F7"/>
<path d="M80.3279 35.3105L95.1531 50.1367L97.1072 52.0908V78.5391L83.7644 69.3418V57.6172L72.8464 46.7002H45.4333V84.8145L53.4011 80.5303C60.2677 76.838 68.5957 77.1532 75.1638 81.3535L96.4685 94.9775H71.7029L67.9753 92.5938C65.4841 91.0008 62.3249 90.8819 59.7205 92.2822L54.7078 94.9775H32.0896V33.3564H78.3738L80.3279 35.3105Z" fill="#0C1214"/>
</g>
<path d="M171.24 28.624H187.557C200.846 28.624 211.605 39.4216 211.557 52.71V52.7109C211.526 61.2266 207.062 68.6927 200.356 72.9287L214.449 96.2822L216.466 99.624H203.618L189.719 76.5908L189.681 76.5293C188.982 76.5907 188.273 76.624 187.557 76.624H171.24V99.624H160.24V28.6162H171.24V28.624ZM336.225 31.7676L336.69 32.7266L367.69 96.7266L369.094 99.624H356.871L350.574 86.624H314.442L308.552 99.624H296.475L297.73 96.8545L326.731 32.8535L328.652 28.6162H334.7L336.225 31.7676ZM389.202 32.3438L390.049 33.1562H390.05L417.46 59.4697L443.9 33.6855L443.901 33.6846L444.75 32.8574L449.101 28.6162H453.24V99.624H442.24V50.6699L421.33 71.0625L421.328 71.0635L420.982 71.4004L417.522 74.7725L414.034 71.4297L413.684 71.0947L413.68 71.0908L391.74 50.0273V99.624H380.74V28.6162H385.317L389.202 32.3438ZM513.74 38.624H477.24V55.124H510.74V66.124H477.24V99.624H466.24V28.6162H513.74V38.624ZM536.24 99.624H525.24V28.6162H536.24V99.624ZM257.74 29.624C276.333 29.624 291.24 44.939 291.24 63.624C291.24 82.3091 276.333 97.624 257.74 97.624C239.147 97.624 224.24 82.3091 224.24 63.624C224.24 44.939 239.147 29.624 257.74 29.624ZM257.74 40.624C245.405 40.624 235.24 50.8298 235.24 63.624C235.24 76.4183 245.405 86.624 257.74 86.624C270.075 86.624 280.24 76.4183 280.24 63.624C280.24 50.8298 270.075 40.624 257.74 40.624ZM319.427 75.624H345.246L331.905 48.084L319.427 75.624ZM171.24 65.623H187.557L187.892 65.6191C194.899 65.4417 200.532 59.7194 200.557 52.6709C200.583 45.5854 194.936 39.8066 187.893 39.6279L187.557 39.624H171.24V65.623Z" fill="white"/>
<defs>
<clipPath id="clip0_159_31">
<rect width="128.24" height="128.24" fill="white"/>
</clipPath>
</defs>
</svg>
