<svg width="376" height="71" viewBox="0 0 376 71" fill="none" xmlns="http://www.w3.org/2000/svg">
<path d="M11 0.0078125H27.3174C40.6057 0.00782895 51.365 10.8054 51.3174 24.0938V24.0947C51.2863 32.6104 46.8223 40.0765 40.1162 44.3125L54.209 67.666L56.2256 71.0078H43.3779L29.4785 47.9746L29.4414 47.9131C28.7415 47.9745 28.0331 48.0078 27.3174 48.0078H11V71.0078H0V0H11V0.0078125ZM175.985 3.15137L176.45 4.11035L207.45 68.1104L208.854 71.0078H196.631L190.334 58.0078H154.202L148.312 71.0078H136.235L137.49 68.2383L166.491 4.2373L168.412 0H174.46L175.985 3.15137ZM228.962 3.72754L229.809 4.54004H229.81L257.22 30.8535L283.66 5.06934L283.661 5.06836L284.51 4.24121L288.861 0H293V71.0078H282V22.0537L261.09 42.4463L261.088 42.4473L260.742 42.7842L257.282 46.1562L253.794 42.8135L253.444 42.4785L253.44 42.4746L231.5 21.4111V71.0078H220.5V0H225.077L228.962 3.72754ZM353.5 10.0078H317V26.5078H350.5V37.5078H317V71.0078H306V0H353.5V10.0078ZM376 71.0078H365V0H376V71.0078ZM97.5 1.00781C116.093 1.00781 131 16.3228 131 35.0078C131 53.6929 116.093 69.0078 97.5 69.0078C78.9067 69.0078 64 53.6929 64 35.0078C64 16.3228 78.9067 1.00781 97.5 1.00781ZM97.5 12.0078C85.1645 12.0078 75 22.2135 75 35.0078C75 47.8021 85.1645 58.0078 97.5 58.0078C109.835 58.0078 120 47.8021 120 35.0078C120 22.2135 109.835 12.0078 97.5 12.0078ZM159.187 47.0078H185.006L171.665 19.4678L159.187 47.0078ZM11 37.0068H27.3174L27.6523 37.0029C34.6591 36.8255 40.2916 31.1032 40.3174 24.0547C40.3427 16.9692 34.6956 11.1904 27.6533 11.0117L27.3174 11.0078H11V37.0068Z" fill="white"/>
</svg>
