<svg xmlns="http://www.w3.org/2000/svg" viewBox="0 0 511 511" width="511" height="511" fill="none">
<g transform="translate(0,511) scale(0.1,-0.1)" fill="#FFFFFF" stroke="none">
<path d="M2995 4360 c-176 -38 -285 -83 -430 -178 -105 -68 -1233 -1194 -1274
-1271 -68 -130 -66 -98 -67 -810 l-2 -644 -235 -236 c-129 -130 -240 -246
-246 -258 -6 -12 -11 -44 -11 -71 0 -114 124 -195 223 -146 18 9 138 122 268
251 l235 234 630 -1 c530 0 638 2 689 15 135 34 131 30 728 624 307 306 582
585 612 621 164 199 258 466 258 730 0 445 -242 836 -648 1044 -201 103 -512
144 -730 96z m335 -315 c159 -21 289 -78 413 -180 329 -272 401 -738 169
-1100 -30 -46 -125 -151 -280 -307 l-235 -238 -469 0 c-257 0 -468 3 -468 8 0
4 198 205 441 447 255 255 449 457 461 479 38 73 4 172 -74 212 -38 20 -107
20 -144 0 -16 -8 -378 -364 -804 -790 -426 -427 -778 -776 -782 -776 -13 0
-10 882 3 921 8 25 162 185 553 577 297 299 567 564 598 588 106 83 241 139
383 159 118 17 113 17 235 0z m-270 -2153 c0 -16 -306 -312 -333 -322 -18 -6
-191 -10 -485 -10 l-457 0 170 170 170 170 467 0 c258 0 468 -3 468 -8z"/>
</g>
</svg>