<svg width="462" height="131" viewBox="0 0 462 131" fill="none" xmlns="http://www.w3.org/2000/svg">
<path d="M71.3432 11.1356C65.9208 12.3063 62.5627 13.6927 58.0954 16.6196C54.8605 18.7146 20.108 53.4054 18.8448 55.7777C16.7498 59.7829 16.8114 58.797 16.7806 80.7329L16.719 100.574L9.47893 107.845C5.50458 111.85 2.08479 115.424 1.89993 115.793C1.71508 116.163 1.56104 117.149 1.56104 117.981C1.56104 121.493 5.38134 123.989 8.43142 122.479C8.98598 122.202 12.6831 118.72 16.6882 114.746L23.9283 107.537L43.3379 107.567C59.6666 107.567 62.994 107.506 64.5653 107.105C68.7245 106.058 68.6012 106.181 86.9941 87.8806C96.4525 78.4531 104.925 69.8574 105.849 68.7482C110.902 62.6173 113.798 54.3913 113.798 46.2577C113.798 32.5478 106.342 20.5015 93.8337 14.0932C87.6411 10.9199 78.0596 9.65675 71.3432 11.1356ZM81.6642 20.8404C86.5628 21.4874 90.568 23.2435 94.3883 26.386C104.524 34.766 106.743 49.123 99.595 60.2758C98.6707 61.693 95.7439 64.9279 90.9685 69.7341L83.7284 77.0667H69.279C61.3611 77.0667 54.8605 76.9742 54.8605 76.8202C54.8605 76.6969 60.9606 70.5044 68.4472 63.0486C76.3035 55.1923 82.2804 48.9689 82.6501 48.2911C83.8208 46.0421 82.7733 42.992 80.3702 41.7596C79.1995 41.1435 77.0737 41.1435 75.9337 41.7596C75.4408 42.0061 64.288 52.9741 51.1634 66.0987C38.0388 79.2541 27.194 90.0064 27.0708 90.0064C26.6703 90.0064 26.7627 62.8329 27.1632 61.6314C27.4097 60.8612 32.1543 55.9317 44.2006 43.8546C53.3508 34.6428 61.6692 26.4784 62.6243 25.739C65.89 23.1819 70.0492 21.4566 74.4241 20.8404C78.0596 20.3166 77.9055 20.3166 81.6642 20.8404ZM73.3458 87.172C73.3458 87.6649 63.9183 96.7844 63.0864 97.0924C62.5319 97.2773 57.2019 97.4005 48.1441 97.4005H34.0644L39.302 92.163L44.5395 86.9255H58.9272C66.8759 86.9255 73.3458 87.0179 73.3458 87.172Z" fill="white"/>
<path d="M158.969 44.5V27H228.5V44.5H204.438V107H183.031V44.5H158.969ZM242.241 107.938C238.413 107.938 235.027 107.313 232.085 106.062C229.168 104.786 226.876 102.859 225.21 100.281C223.543 97.7031 222.71 94.4219 222.71 90.4375C222.71 87.1562 223.27 84.3568 224.389 82.0391C225.509 79.6953 227.072 77.7812 229.077 76.2969C231.082 74.8125 233.413 73.6797 236.069 72.8984C238.751 72.1172 241.642 71.6094 244.741 71.375C248.1 71.1146 250.796 70.8021 252.827 70.4375C254.884 70.0469 256.369 69.513 257.28 68.8359C258.192 68.1328 258.647 67.2083 258.647 66.0625V65.9062C258.647 64.3437 258.048 63.1458 256.85 62.3125C255.652 61.4792 254.116 61.0625 252.241 61.0625C250.184 61.0625 248.504 61.5182 247.202 62.4297C245.926 63.3151 245.158 64.6823 244.897 66.5312H225.054C225.314 62.8854 226.473 59.526 228.53 56.4531C230.613 53.3542 233.647 50.8802 237.632 49.0313C241.616 47.1563 246.59 46.2188 252.554 46.2188C256.85 46.2188 260.705 46.7266 264.116 47.7422C267.527 48.7318 270.431 50.125 272.827 51.9219C275.223 53.6927 277.046 55.776 278.296 58.1719C279.572 60.5417 280.21 63.1198 280.21 65.9062V107H260.054V98.5625H259.585C258.387 100.802 256.929 102.612 255.21 103.992C253.517 105.372 251.577 106.375 249.389 107C247.228 107.625 244.845 107.938 242.241 107.938ZM249.272 94.3437C250.913 94.3437 252.449 94.0052 253.882 93.3281C255.34 92.651 256.525 91.6745 257.436 90.3984C258.348 89.1224 258.804 87.5729 258.804 85.75V80.75C258.231 80.9844 257.619 81.2057 256.968 81.4141C256.343 81.6224 255.665 81.8177 254.936 82C254.233 82.1823 253.478 82.3516 252.671 82.5078C251.889 82.6641 251.069 82.8073 250.21 82.9375C248.543 83.1979 247.176 83.6276 246.108 84.2266C245.067 84.7995 244.285 85.5156 243.764 86.375C243.27 87.2083 243.022 88.1458 243.022 89.1875C243.022 90.8542 243.608 92.1302 244.78 93.0156C245.952 93.901 247.449 94.3437 249.272 94.3437ZM308.775 27V107H287.213V27H308.775ZM345.211 108.094C338.805 108.094 333.284 106.87 328.649 104.422C324.039 101.948 320.485 98.4062 317.985 93.7969C315.511 89.1615 314.274 83.6146 314.274 77.1563C314.274 70.9583 315.524 65.5417 318.024 60.9062C320.524 56.2708 324.052 52.6641 328.61 50.0859C333.167 47.5078 338.545 46.2188 344.743 46.2188C349.274 46.2188 353.375 46.9219 357.047 48.3281C360.719 49.7344 363.857 51.7786 366.461 54.4609C369.066 57.1172 371.071 60.3464 372.477 64.1484C373.883 67.9505 374.586 72.2344 374.586 77V82H320.993V70.125H354.743C354.717 68.4062 354.274 66.8958 353.414 65.5937C352.581 64.2656 351.448 63.237 350.016 62.5078C348.61 61.7526 347.008 61.375 345.211 61.375C343.467 61.375 341.865 61.7526 340.407 62.5078C338.948 63.237 337.776 64.2526 336.891 65.5547C336.032 66.8568 335.576 68.3802 335.524 70.125V82.9375C335.524 84.8646 335.927 86.5833 336.735 88.0938C337.542 89.6042 338.701 90.7891 340.211 91.6484C341.722 92.5078 343.545 92.9375 345.68 92.9375C347.164 92.9375 348.519 92.7292 349.743 92.3125C350.993 91.8958 352.06 91.2969 352.946 90.5156C353.831 89.7083 354.482 88.7448 354.899 87.625H374.586C373.909 91.7917 372.308 95.4115 369.782 98.4844C367.256 101.531 363.909 103.901 359.743 105.594C355.602 107.26 350.758 108.094 345.211 108.094ZM403.054 27L416.179 50.2812H416.804L430.085 27H454.304L430.398 67L455.241 107H430.398L416.804 83.25H416.179L402.585 107H377.898L402.429 67L378.679 27H403.054Z" fill="white"/>
</svg>
