<svg width="297" height="82" viewBox="0 0 297 82" fill="none" xmlns="http://www.w3.org/2000/svg">
<path d="M3.72529e-08 17.5V-2.38419e-06H69.5313V17.5H45.4688V80H24.0625V17.5H3.72529e-08ZM83.2723 80.9375C79.4441 80.9375 76.0587 80.3125 73.116 79.0625C70.1993 77.7865 67.9077 75.8594 66.241 73.2812C64.5743 70.7031 63.741 67.4219 63.741 63.4375C63.741 60.1562 64.3009 57.3568 65.4207 55.0391C66.5405 52.6953 68.103 50.7812 70.1082 49.2969C72.1134 47.8125 74.4441 46.6797 77.1004 45.8984C79.7827 45.1172 82.6733 44.6094 85.7723 44.375C89.1316 44.1146 91.827 43.8021 93.8582 43.4375C95.9155 43.0469 97.3999 42.513 98.3113 41.8359C99.2228 41.1328 99.6785 40.2083 99.6785 39.0625V38.9062C99.6785 37.3437 99.0796 36.1458 97.8816 35.3125C96.6837 34.4792 95.1473 34.0625 93.2723 34.0625C91.215 34.0625 89.5353 34.5182 88.2332 35.4297C86.9572 36.3151 86.1889 37.6823 85.9285 39.5312H66.0848C66.3452 35.8854 67.504 32.526 69.5613 29.4531C71.6447 26.3542 74.6785 23.8802 78.6629 22.0313C82.6473 20.1563 87.6212 19.2188 93.5848 19.2188C97.8816 19.2188 101.736 19.7266 105.147 20.7422C108.559 21.7318 111.462 23.125 113.858 24.9219C116.254 26.6927 118.077 28.776 119.327 31.1719C120.603 33.5417 121.241 36.1198 121.241 38.9062V80H101.085V71.5625H100.616C99.4181 73.8021 97.9598 75.612 96.241 76.9922C94.5483 78.3724 92.6082 79.375 90.4207 80C88.2592 80.625 85.8764 80.9375 83.2723 80.9375ZM90.3035 67.3437C91.9441 67.3437 93.4806 67.0052 94.9129 66.3281C96.3712 65.651 97.5561 64.6745 98.4676 63.3984C99.379 62.1224 99.8348 60.5729 99.8348 58.75V53.75C99.2618 53.9844 98.6499 54.2057 97.9988 54.4141C97.3738 54.6224 96.6967 54.8177 95.9676 55C95.2645 55.1823 94.5092 55.3516 93.702 55.5078C92.9207 55.6641 92.1004 55.8073 91.241 55.9375C89.5743 56.1979 88.2072 56.6276 87.1395 57.2266C86.0978 57.7995 85.3165 58.5156 84.7957 59.375C84.3009 60.2083 84.0535 61.1458 84.0535 62.1875C84.0535 63.8542 84.6395 65.1302 85.8113 66.0156C86.9832 66.901 88.4806 67.3437 90.3035 67.3437ZM149.806 -2.38419e-06V80H128.244V-2.38419e-06H149.806ZM186.243 81.0937C179.836 81.0937 174.316 79.8698 169.68 77.4219C165.071 74.9479 161.516 71.4062 159.016 66.7969C156.542 62.1615 155.305 56.6146 155.305 50.1563C155.305 43.9583 156.555 38.5417 159.055 33.9062C161.555 29.2708 165.084 25.6641 169.641 23.0859C174.198 20.5078 179.576 19.2188 185.774 19.2188C190.305 19.2188 194.407 19.9219 198.079 21.3281C201.75 22.7344 204.888 24.7786 207.493 27.4609C210.097 30.1172 212.102 33.3464 213.508 37.1484C214.914 40.9505 215.618 45.2344 215.618 50V55H162.024V43.125H195.774C195.748 41.4062 195.305 39.8958 194.446 38.5937C193.612 37.2656 192.48 36.237 191.047 35.5078C189.641 34.7526 188.039 34.375 186.243 34.375C184.498 34.375 182.896 34.7526 181.438 35.5078C179.98 36.237 178.808 37.2526 177.922 38.5547C177.063 39.8568 176.607 41.3802 176.555 43.125V55.9375C176.555 57.8646 176.959 59.5833 177.766 61.0938C178.573 62.6042 179.732 63.7891 181.243 64.6484C182.753 65.5078 184.576 65.9375 186.711 65.9375C188.196 65.9375 189.55 65.7292 190.774 65.3125C192.024 64.8958 193.092 64.2969 193.977 63.5156C194.862 62.7083 195.513 61.7448 195.93 60.625H215.618C214.941 64.7917 213.339 68.4115 210.813 71.4844C208.287 74.5313 204.941 76.901 200.774 78.5937C196.633 80.2604 191.789 81.0937 186.243 81.0937ZM244.085 -2.38419e-06L257.21 23.2812H257.835L271.116 -2.38419e-06H295.335L271.429 40L296.273 80H271.429L257.835 56.25H257.21L243.616 80H218.929L243.46 40L219.71 -2.38419e-06H244.085Z" fill="white"/>
</svg>
