<svg width="118" height="62" viewBox="0 0 118 62" fill="none" xmlns="http://www.w3.org/2000/svg">
<path d="M0 29.9461L2.33321 26.5336L2.59299 26.2222L2.85122 25.8986L3.111 25.5876L3.37072 25.2766L3.62896 24.9779L3.88873 24.6669L4.14846 24.3695L4.4067 24.0712L4.66647 23.7865L4.92625 23.4756L5.18443 23.2031L5.44421 22.9043L5.70398 22.6201L5.96217 22.3602L6.22194 22.0615L6.48172 21.7768L6.73991 21.517L6.99968 21.259L7.25946 20.9991L7.51765 20.7393L7.77742 20.4809L8.03719 20.2215L8.29543 19.9617L8.55516 19.7032L8.81493 19.495L9.0733 19.2492L9.33312 18.9894L9.59249 18.7825L9.85095 18.5367L10.1108 18.3281L10.3706 18.109L10.6286 17.8881L10.8884 17.6672L11.1482 17.4477L11.4062 17.2395L11.6661 17.0326L11.9259 16.8117L12.1843 16.6049L12.4437 16.398L12.7035 16.1893L12.962 15.9825L13.2218 15.7883L13.4816 15.5814L13.7396 15.3868L13.9995 15.1786L14.2593 14.9839L14.5173 14.7897L14.7771 14.5951L15.0369 14.4005L15.2949 14.2063L15.5548 14.0257L15.8146 13.8315L16.073 13.6495L16.3324 13.4549L16.5922 13.2729L16.8507 13.0923L17.1105 12.923L17.3703 12.7284L17.6283 12.5482L17.8881 12.3785L18.148 12.2106L18.406 12.0286L18.6658 11.8607L18.9256 11.6927L19.1836 11.5108L19.4434 11.3424L19.7033 11.1731L19.9617 11.0174L20.2215 10.8495L20.4809 10.6815L20.7394 10.5258L20.9992 10.3565L21.259 10.2008L21.517 10.0329L21.7768 9.87718L22.0367 9.72192L22.2947 9.56622L22.5545 9.41051L22.8143 9.25525L23.0728 9.11221L23.3321 8.9565L23.5919 8.81482L23.8504 8.67179L24.1102 8.51608L24.3696 8.37304L24.6281 8.24404L24.8879 8.08833L25.1477 7.95932L25.4057 7.82896L25.6655 7.69951L25.9253 7.54425L26.1834 7.40121L26.4432 7.27176L26.703 7.14275L26.9614 7.01193L27.2208 6.89561L27.4806 6.79286L27.7391 6.66204L27.9989 6.53304L28.2587 6.40403L28.5167 6.29992L28.7766 6.17047L29.0364 6.05414L29.2944 5.94957L29.5542 5.83325L29.814 5.71646L30.072 5.61236L30.3319 5.49557L30.5917 5.39282L30.8501 5.28871L31.11 5.18461L31.3693 5.08185L31.6278 4.97775L31.8876 4.87318L32.1474 4.77089L32.4054 4.679L32.6652 4.57625L32.9251 4.48436L33.1831 4.38161L33.4429 4.30421L33.7027 4.19965L33.9607 4.10957L34.2205 4.01768L34.4804 3.92761L34.7388 3.84975L34.9986 3.75968L35.258 3.66779L35.5165 3.58993L35.7763 3.51208L36.0361 3.43467L36.2941 3.34415L36.5539 3.26629L36.8138 3.20111L37.0718 3.12326L37.3316 3.04585L37.5914 2.95532L37.8499 2.89014L38.1092 2.82632L38.3691 2.74846L38.6275 2.68328L38.8873 2.6181L39.1472 2.55428L39.4052 2.48865L39.665 2.41079L39.9248 2.34561L40.1828 2.29446L40.4426 2.22883L40.7024 2.16546L40.9605 2.09982L41.2203 2.03464L41.4801 1.98304L41.7386 1.91786L41.9979 1.86671L42.2577 1.81511L42.5162 1.76215L42.776 1.711L43.0358 1.64582L43.2938 1.59422L43.5537 1.55529L43.8135 1.50414L44.0715 1.45118L44.3313 1.40003L44.5911 1.36111L44.8491 1.3095L45.109 1.27103L45.3688 1.21807L45.6272 1.16647L45.8871 1.14021L46.1464 1.10129L46.4049 1.05014L46.6647 1.01121L46.9245 0.972284L47.1825 0.933354L47.4424 0.906649L47.7022 0.8555L47.9602 0.829247L48.22 0.777646L48.4798 0.765425L48.7383 0.712463L48.9976 0.699789L49.2575 0.648641L49.5159 0.63461L49.7758 0.583461H50.0356L50.2936 0.53186L50.5534 0.517825L50.8132 0.478899L51.0712 0.454003L51.331 0.4402L51.5909 0.388868H51.8489L52.1087 0.362432L52.3685 0.32355H52.627L52.8863 0.284668L53.1462 0.259773H53.4046L53.6644 0.23334L53.9243 0.194458H54.1823H54.4421L54.7019 0.155528L54.9599 0.129095H55.2197H55.4796L55.7376 0.116646L55.9974 0.0653179H56.2572H56.5157H56.7755H57.0348L57.2933 0.0264359L57.5531 0H57.8129H58.071H58.3308H58.5906H58.8486H59.1084H59.3682H59.6267H59.8861H60.1459H60.4044H60.6642H60.9235L61.182 0.0124461L61.4418 0.0653179H61.7016H61.9596H62.2195H62.4793L62.7373 0.0902135L62.9971 0.129095H63.2569H63.5154L63.7748 0.155528L64.0346 0.194458H64.293L64.5529 0.206859L64.8127 0.259773H65.0707L65.3305 0.284668L65.5903 0.32355H65.8483L66.1082 0.376419L66.368 0.388868L66.626 0.42775L66.8858 0.454003L67.1456 0.49293L67.4041 0.517825L67.6639 0.556756L67.9233 0.583461L68.1817 0.622388L68.4415 0.660862L68.7014 0.712463L68.9594 0.73872L69.2192 0.777646L69.479 0.816573L69.737 0.8555L69.9968 0.906649L70.2567 0.945576L70.5147 0.984506L70.7745 1.03746L71.0343 1.08861L71.2928 1.12754L71.5526 1.17914L71.812 1.2321L72.0704 1.28325L72.3302 1.3344L72.59 1.38736L72.8481 1.43896L73.1079 1.49011L73.3677 1.54307L73.6257 1.60689L73.8855 1.67207L74.1453 1.72367L74.4038 1.78886L74.6632 1.85404L74.923 1.90564L75.1815 1.97082L75.4413 2.03464L75.7011 2.09982L75.9591 2.16546L76.2189 2.24286L76.4787 2.30668L76.7368 2.37232L76.9966 2.4375L77.2564 2.51535L77.5144 2.59321L77.7742 2.67061L78.034 2.73443L78.2925 2.81229L78.5523 2.89014L78.8117 2.95532L79.0701 3.04585L79.33 3.12326L79.5898 3.20111L79.8478 3.27897L80.1076 3.37085L80.3674 3.46093L80.6254 3.53878L80.8853 3.62886L81.1451 3.72075L81.4031 3.7986L81.6629 3.88868L81.9227 3.97876L82.1812 4.05661L82.441 4.16072L82.7004 4.25125L82.9588 4.34314L83.2186 4.44543L83.4785 4.53732L83.7365 4.64007L83.9963 4.73196L84.2561 4.83426L84.5141 4.93882L84.7739 5.04293L85.0338 5.14568L85.2922 5.24979L85.5516 5.3539L85.8114 5.45664L86.0699 5.56075L86.3297 5.66486L86.5895 5.78165L86.8475 5.88439L87.1073 6.00118L87.3672 6.10529L87.6252 6.23429L87.885 6.3384L88.1448 6.46786L88.4028 6.58418L88.6626 6.68875L88.9225 6.81775L89.1809 6.94856L89.4403 7.0649L89.7001 7.18168L89.9586 7.31068L90.2184 7.43968L90.4782 7.5705L90.7362 7.69951L90.996 7.82896L91.2558 7.95932L91.5138 8.08833L91.7737 8.21778L92.0335 8.36082L92.2915 8.50386L92.5513 8.63286L92.8111 8.7759L93.0696 8.93161L93.3294 9.06061L93.5888 9.20365L93.8472 9.34533L94.1071 9.50103L94.3669 9.64407L94.6249 9.79933L94.8847 9.94282L95.1445 10.0981L95.4025 10.2538L95.6624 10.4095L95.9222 10.5648L96.1806 10.7327L96.44 10.8884L96.6998 11.0563L96.9583 11.212L97.2181 11.3813L97.4779 11.537L97.7359 11.705L97.9958 11.8869L98.2556 12.0549L98.5136 12.2228L98.7734 12.4048L99.0332 12.5731L99.2912 12.7551L99.551 12.9371L99.8109 13.1172L100.069 13.2992L100.329 13.4938L100.589 13.6758L100.847 13.8564L101.107 14.0384L101.367 14.2325L101.625 14.4272L101.884 14.6214L102.144 14.816L102.402 15.0229L102.662 15.2175L102.922 15.4257L103.18 15.6326L103.44 15.8394L103.7 16.0341L103.958 16.255L104.218 16.4618L104.477 16.67L104.736 16.8896L104.995 17.1105L105.255 17.3173L105.513 17.5382L105.773 17.7591L106.033 17.9782L106.291 18.2117L106.551 18.4326L106.811 18.6658L107.069 18.8993L107.328 19.1202L107.588 19.3782L107.847 19.638L108.107 19.8979L108.366 20.1047L108.624 20.3505L108.884 20.6103L109.144 20.8701L109.402 21.1281L109.662 21.388L109.922 21.6478L110.18 21.9447L110.439 22.2308L110.699 22.4893L110.958 22.7491L111.217 23.0089L111.477 23.3199L111.735 23.5919L111.995 23.8504L112.255 24.1613L112.513 24.4334L112.773 24.7448L113.033 25.0168L113.291 25.3278L113.551 25.6265L113.81 25.9253L114.068 26.2363L114.328 26.5472L114.588 26.8446L114.846 27.1696L115.106 27.4932L115.366 27.8042L115.624 28.1152L117.957 31.5186L115.624 34.899L115.366 35.1973L115.106 35.4915L114.846 35.7839L114.588 36.075L114.328 36.3624L114.068 36.6489L113.81 36.9318L113.551 37.212L113.291 37.4917L113.033 37.767L112.773 38.0408L112.513 38.3133L112.255 38.5822L111.995 38.8497L111.735 39.1158L111.477 39.3788L111.217 39.64L110.958 39.898L110.699 40.1547L110.439 40.4081L110.18 40.6603L109.922 40.9106L109.662 41.1582L109.402 41.404L109.144 41.6479L108.884 41.8892L108.624 42.1286L108.366 42.3667L108.107 42.6017L107.847 42.8348L107.588 43.0665L107.328 43.2969L107.069 43.5242L106.811 43.7496L106.551 43.9736L106.291 44.1945L106.033 44.4136L105.773 44.6313L105.513 44.8477L105.255 45.0622L104.995 45.2741L104.736 45.4841L104.477 45.6923L104.218 45.8978L103.958 46.1029L103.7 46.3052L103.44 46.5057L103.18 46.7049L102.922 46.9027L102.662 47.0987L102.402 47.2915L102.144 47.4844L101.884 47.674L101.625 47.8623L101.367 48.0488L101.107 48.2339L100.847 48.4177L100.589 48.5979L100.329 48.7785L100.069 48.9573L99.8109 49.1329L99.551 49.3072L99.2912 49.4814L99.0332 49.6525L98.7734 49.8223L98.5136 49.9902L98.2556 50.1568L97.9958 50.3229L97.7359 50.4863L97.4779 50.6479L97.2181 50.8081L96.9583 50.967L96.6998 51.1241L96.44 51.2798L96.1806 51.4337L95.9222 51.5862L95.6624 51.737L95.4025 51.8863L95.1445 52.0339L94.8847 52.1801L94.6249 52.3263L94.3669 52.4698L94.1071 52.611L93.8472 52.7527L93.5888 52.8912L93.3294 53.0297L93.0696 53.1651L92.8111 53.3004L92.5513 53.4339L92.2915 53.5661L92.0335 53.6969L91.7737 53.8259L91.5138 53.9536L91.2558 54.0794L90.996 54.2057L90.7362 54.3284L90.4782 54.4515L90.2184 54.5728L89.9586 54.6923L89.7001 54.8104L89.4403 54.9272L89.1809 55.044L88.9225 55.159L88.6626 55.2712L88.4028 55.383L88.1448 55.4935L87.885 55.6039L87.6252 55.7112L87.3672 55.8185L87.1073 55.9244L86.8475 56.0285L86.5895 56.1312L86.3297 56.234L86.0699 56.3349L85.8114 56.4332L85.5516 56.5323L85.2922 56.6291L85.0338 56.7256L84.7739 56.8202L84.5141 56.9134L84.2561 57.0053L83.9963 57.0972L83.7365 57.1859L83.4785 57.2746L83.2186 57.3633L82.9588 57.4489L82.7004 57.5344L82.441 57.6182L82.1812 57.7024L81.9227 57.7848L81.6629 57.8653L81.4031 57.945L81.1451 58.0229L80.8853 58.1002L80.6254 58.1767L80.3674 58.2528L80.1076 58.3275L79.8478 58.4008L79.5898 58.4723L79.33 58.5438L79.0701 58.6135L78.8117 58.6824L78.5523 58.7507L78.2925 58.8177L78.034 58.8829L77.7742 58.9481L77.5144 59.0105L77.2564 59.0743L76.9966 59.135L76.7368 59.1956L76.4787 59.2563L76.2189 59.3138L75.9591 59.3713L75.7011 59.4288L75.4413 59.4849L75.1815 59.5392L74.923 59.5922L74.6632 59.6451L74.4038 59.6963L74.1453 59.7479L73.8855 59.7977L73.6257 59.8457L73.3677 59.8941L73.1079 59.9407L72.8481 59.9855L72.59 60.0308L72.3302 60.0742L72.0704 60.1177L71.812 60.1598L71.5526 60.2005L71.2928 60.2408L71.0343 60.2797L70.7745 60.3187L70.5147 60.3558L70.2567 60.3915L69.9968 60.4273L69.737 60.4617L69.479 60.4943L69.2192 60.5269L68.9594 60.5595L68.7014 60.5907L68.4415 60.6201L68.1817 60.65L67.9233 60.6781L67.6639 60.7043L67.4041 60.7306L67.1456 60.7555L66.8858 60.7804L66.626 60.8039L66.368 60.827L66.1082 60.8492L65.8483 60.8691L65.5903 60.8895L65.3305 60.908L65.0707 60.9266L64.8127 60.9438L64.5529 60.961L64.293 60.9764L64.0346 60.9904L63.7748 61.0044L63.5154 61.0185L63.2569 61.0293L62.9971 61.042L62.7373 61.0511L62.4793 61.0606L62.2195 61.0701L61.9596 61.0778L61.7016 61.0836L61.4418 61.09L61.182 61.095L60.9235 61.0995L60.6642 61.1027L60.4044 61.104L60.1459 61.1058L59.8861 61.1072H59.6267L59.3682 61.1058L59.1084 61.104L58.8486 61.1008L58.5906 61.0977L58.3308 61.0931L58.071 61.0868L57.8129 61.0809L57.5531 61.0746L57.2933 61.0669L57.0348 61.0574L56.7755 61.0479L56.5157 61.037L56.2572 61.0262L55.9974 61.0139L55.7376 60.9999L55.4796 60.9859L55.2197 60.9705L54.9599 60.9546L54.7019 60.9374L54.4421 60.9207L54.1823 60.9017L53.9243 60.8831L53.6644 60.8628L53.4046 60.841L53.1462 60.8193L52.8863 60.7962L52.627 60.7727L52.3685 60.7478L52.1087 60.7215L51.8489 60.6948L51.5909 60.6686L51.331 60.6391L51.0712 60.6111L50.8132 60.5798L50.5534 60.5486L50.2936 60.5178L50.0356 60.4848L49.7758 60.4508L49.5159 60.4164L49.2575 60.3807L48.9976 60.3436L48.7383 60.306L48.4798 60.2689L48.22 60.2281L47.9602 60.1878L47.7022 60.1476L47.4424 60.1055L47.1825 60.062L46.9245 60.0181L46.6647 59.9733L46.4049 59.928L46.1464 59.8814L45.8871 59.8334L45.6272 59.785L45.3688 59.7352L45.109 59.6841L44.8491 59.6325L44.5911 59.5795L44.3313 59.527L44.0715 59.4722L43.8135 59.4165L43.5537 59.3586L43.2938 59.3029L43.0358 59.2436L42.776 59.1848L42.5162 59.1241L42.2577 59.0617L41.9979 58.9997L41.7386 58.9358L41.4801 58.872L41.2203 58.805L40.9605 58.7398L40.7024 58.6715L40.4426 58.6027L40.1828 58.533L39.9248 58.4628L39.665 58.3899L39.4052 58.318L39.1472 58.2437L38.8873 58.1691L38.6275 58.0926L38.3691 58.0147L38.1092 57.9373L37.8499 57.8576L37.5914 57.7771L37.3316 57.696L37.0718 57.6137L36.8138 57.5295L36.5539 57.4439L36.2941 57.3584L36.0361 57.2715L35.7763 57.1827L35.5165 57.094L35.258 57.0021L34.9986 56.9107L34.7388 56.8188L34.4804 56.7238L34.2205 56.6291L33.9607 56.5323L33.7027 56.4345L33.4429 56.3363L33.1831 56.2353L32.9251 56.1344L32.6652 56.033L32.4054 55.9289L32.1474 55.8248L31.8876 55.7175L31.6278 55.6116L31.3693 55.503L31.11 55.3925L30.8501 55.2821L30.5917 55.1698L30.3319 55.0562L30.072 54.9412L29.814 54.8245L29.5542 54.7081L29.2944 54.5882L29.0364 54.4682L28.7766 54.3469L28.5167 54.2242L28.2587 54.1011L27.9989 53.9753L27.7391 53.8476L27.4806 53.72L27.2208 53.591L26.9614 53.4606L26.703 53.328L26.4432 53.1945L26.1834 53.0591L25.9253 52.9238L25.6655 52.7853L25.4057 52.6468L25.1477 52.5055L24.8879 52.3639L24.6281 52.2208L24.3696 52.0746L24.1102 51.9284L23.8504 51.7804L23.5919 51.631L23.3321 51.4803L23.0728 51.3278L22.8143 51.1739L22.5545 51.0182L22.2947 50.8611L22.0367 50.704L21.7768 50.5438L21.517 50.3822L21.259 50.2188L20.9992 50.054L20.7394 49.8874L20.4809 49.7195L20.2215 49.5498L19.9617 49.3787L19.7033 49.2062L19.4434 49.0319L19.1836 48.8563L18.9256 48.6789L18.6658 48.4983L18.406 48.3181L18.148 48.1362L17.8881 47.951L17.6283 47.7659L17.3703 47.5776L17.1105 47.3879L16.8507 47.1965L16.5922 47.0036L16.3324 46.809L16.073 46.6116L15.8146 46.4143L15.5548 46.2133L15.2949 46.011L15.0369 45.8073L14.7771 45.6022L14.5173 45.3954L14.2593 45.1854L13.9995 44.9753L13.7396 44.7621L13.4816 44.5476L13.2218 44.3299L12.962 44.1121L12.7035 43.8912L12.4437 43.6685L12.1843 43.4445L11.9259 43.2177L11.6661 42.9891L11.4062 42.7587L11.1482 42.527L10.8884 42.292L10.6286 42.0571L10.3706 41.8177L10.1108 41.5782L9.85095 41.3356L9.59249 41.0912L9.33312 40.844L9.0733 40.5951L8.81493 40.3448L8.55516 40.0926L8.29543 39.8373L8.03719 39.5807L7.77742 39.3209L7.51765 39.0597L7.25946 38.7954L6.99968 38.531L6.73991 38.2617L6.48172 37.9928L6.22194 37.719L5.96217 37.4451L5.70398 37.1681L5.44421 36.8884L5.18443 36.6068L4.92625 36.3235L4.66647 36.0374L4.4067 35.7495L4.14846 35.4589L3.88873 35.1647L3.62896 34.8709L3.37072 34.5722L3.111 34.2721L2.85122 33.9702L2.59299 33.6637L2.33321 33.3573L0 29.9461Z" fill="#FF0033"/>
<path d="M95.5084 22.1795C95.5084 29.6794 89.4289 35.7588 81.929 35.7588C74.4291 35.7588 68.3496 29.6794 68.3496 22.1795C68.3496 14.6796 74.4291 8.6001 81.929 8.6001C89.4289 8.6001 95.5084 14.6796 95.5084 22.1795Z" fill="white"/>
</svg>
