<svg width="355" height="62" viewBox="0 0 355 62" fill="none" xmlns="http://www.w3.org/2000/svg">
<path d="M15.3558 3.14209L26.7052 44.8488L38.055 3.14209H53.4887L34.2062 60.3222H19.1649L0 3.14209H15.3558Z" fill="white"/>
<path d="M71.0435 17.8291V60.3216H57.7696V17.8291H71.0435ZM56.9844 6.87217C56.9844 4.98724 57.6649 3.44259 59.0266 2.23821C60.3877 1.03383 62.1551 0.431641 64.3282 0.431641C66.5013 0.431641 68.2682 1.03383 69.6298 2.23821C70.9915 3.44259 71.672 4.98724 71.672 6.87217C71.672 8.75711 70.9915 10.3018 69.6298 11.5061C68.2682 12.7105 66.5013 13.3127 64.3282 13.3127C62.1551 13.3127 60.3877 12.7105 59.0266 11.5061C57.6649 10.3018 56.9844 8.75711 56.9844 6.87217Z" fill="white"/>
<path d="M99.7518 61.1073C96.2959 61.1073 93.2066 60.5644 90.4834 59.4776C87.7606 58.3913 85.4632 56.8925 83.5912 54.9813C81.7191 53.0701 80.2925 50.8706 79.3104 48.3835C78.3287 45.8964 77.8379 43.2649 77.8379 40.4896V38.9975C77.8379 35.8819 78.2699 32.9952 79.134 30.338C79.9976 27.6802 81.2809 25.357 82.9823 23.3669C84.6842 21.3773 86.8182 19.8259 89.3837 18.7133C91.9497 17.6007 94.9343 17.0444 98.3381 17.0444C101.349 17.0444 104.046 17.5286 106.428 18.4973C108.81 19.4661 110.833 20.8535 112.496 22.66C114.158 24.4666 115.428 26.6526 116.305 29.2186C117.182 31.7841 117.621 34.6641 117.621 37.8586V43.2386H91.3474C91.4521 43.7624 91.5965 44.2728 91.7795 44.7704C92.1982 46.0531 92.8205 47.1461 93.6449 48.0494C94.4698 48.9527 95.4643 49.6534 96.6295 50.1504C97.7947 50.6479 99.1234 50.8969 100.616 50.8969C102.423 50.8969 104.203 50.5566 105.957 49.8756C107.711 49.195 109.216 48.069 110.473 46.4986L116.482 53.6459C115.618 54.8766 114.394 56.0676 112.81 57.2194C111.226 58.3717 109.334 59.3074 107.135 60.0277C104.936 60.7474 102.475 61.1073 99.7518 61.1073ZM91.3474 34.9523H104.7V33.931C104.726 32.5173 104.484 31.3129 103.973 30.3184C103.463 29.3233 102.724 28.5639 101.755 28.0406C100.786 27.5167 99.608 27.2548 98.2201 27.2548C96.7801 27.2548 95.5953 27.5693 94.6662 28.1973C93.7366 28.8258 93.0164 29.6832 92.5059 30.77C91.9955 31.8563 91.6357 33.1066 91.4258 34.5203C91.4001 34.6512 91.3737 34.7951 91.3474 34.9523Z" fill="white"/>
<path d="M132.819 17.8296L137.021 43.435L143.776 17.8296H153.005L159.72 42.9637L163.962 17.8296H176.646L166.672 60.322H155.44L148.449 35.1487L141.341 60.322H130.187L120.134 17.8296H132.819Z" fill="white"/>
<path d="M203.666 48.3835C203.666 47.6504 203.424 47.0152 202.939 46.4785C202.455 45.9418 201.611 45.4447 200.406 44.9864C199.202 44.5281 197.513 44.0635 195.34 43.5923C193.272 43.1473 191.328 42.558 189.509 41.8249C187.689 41.0918 186.098 40.2019 184.737 39.1542C183.375 38.1071 182.309 36.8636 181.536 35.4236C180.764 33.9836 180.378 32.3342 180.378 30.4751C180.378 28.6685 180.764 26.9604 181.536 25.3503C182.309 23.7402 183.447 22.3131 184.953 21.0695C186.458 19.8259 188.297 18.8443 190.471 18.124C192.644 17.4043 195.118 17.0444 197.893 17.0444C201.715 17.0444 205.014 17.6265 207.79 18.7917C210.565 19.9569 212.705 21.5799 214.211 23.6618C215.716 25.7432 216.469 28.1452 216.469 30.868H203.234C203.234 29.7945 203.057 28.8784 202.704 28.1189C202.35 27.3595 201.781 26.7774 200.995 26.3711C200.21 25.9654 199.163 25.7628 197.854 25.7628C196.937 25.7628 196.106 25.9329 195.36 26.2732C194.614 26.6135 194.018 27.0847 193.573 27.6869C193.128 28.2891 192.906 28.9959 192.906 29.8074C192.906 30.3838 193.043 30.901 193.318 31.3588C193.593 31.8171 194.018 32.2358 194.594 32.6157C195.17 32.9952 195.903 33.3355 196.794 33.6366C197.683 33.9377 198.757 34.2063 200.014 34.4419C202.868 34.9652 205.538 35.7118 208.025 36.6805C210.512 37.6488 212.535 39.0233 214.093 40.8041C215.651 42.5843 216.43 44.9797 216.43 47.9906C216.43 49.8756 215.998 51.6105 215.134 53.1943C214.269 54.7781 213.026 56.1655 211.403 57.357C209.779 58.5485 207.829 59.4714 205.551 60.1257C203.273 60.7804 200.707 61.1073 197.854 61.1073C193.795 61.1073 190.366 60.3809 187.564 58.928C184.763 57.4751 182.649 55.6422 181.222 53.4299C179.795 51.2176 179.082 48.9723 179.082 46.6945H191.413C191.466 48.0035 191.786 49.0769 192.375 49.9147C192.964 50.7526 193.756 51.3682 194.751 51.761C195.746 52.1534 196.898 52.3498 198.207 52.3498C199.412 52.3498 200.413 52.1797 201.211 51.8394C202.01 51.4991 202.619 51.0341 203.038 50.4453C203.456 49.856 203.666 49.1687 203.666 48.3835Z" fill="white"/>
<path d="M255.78 40.9596H269.525C269.342 44.9393 268.268 48.4478 266.305 51.4845C264.341 54.5217 261.625 56.8846 258.156 58.5731C254.687 60.2621 250.596 61.1061 245.883 61.1061C242.061 61.1061 238.651 60.4648 235.653 59.182C232.655 57.8993 230.115 56.0535 228.034 53.6448C225.953 51.236 224.369 48.3168 223.283 44.8867C222.196 41.4571 221.652 37.5955 221.652 33.3018V30.1991C221.652 25.9054 222.222 22.0371 223.361 18.5941C224.5 15.1516 226.123 12.219 228.231 9.79739C230.338 7.37574 232.871 5.52329 235.83 4.24055C238.788 2.95729 242.074 2.31592 245.687 2.31592C250.662 2.31592 254.864 3.20631 258.294 4.98658C261.723 6.76685 264.38 9.20809 266.266 12.3108C268.151 15.413 269.263 18.9411 269.604 22.8945H255.859C255.807 20.7476 255.44 18.9478 254.759 17.4949C254.078 16.0415 253.005 14.9485 251.539 14.2153C250.072 13.4822 248.122 13.1156 245.687 13.1156C243.985 13.1156 242.506 13.4301 241.249 14.0586C239.993 14.6866 238.945 15.6816 238.107 17.0432C237.27 18.4044 236.648 20.165 236.242 22.3253C235.836 24.485 235.634 27.0835 235.634 30.1207V33.3018C235.634 36.3385 235.817 38.9308 236.183 41.0777C236.55 43.2245 237.139 44.9785 237.951 46.3401C238.762 47.7012 239.816 48.703 241.112 49.3444C242.408 49.9857 243.998 50.3064 245.883 50.3064C247.978 50.3064 249.745 49.9729 251.185 49.3052C252.625 48.6375 253.738 47.6162 254.523 46.2417C255.309 44.8671 255.728 43.1065 255.78 40.9596Z" fill="white"/>
<path d="M298.115 56.5125C297.671 57.0626 297.186 57.5731 296.663 58.0443C295.668 58.9605 294.463 59.7003 293.049 60.2633C291.636 60.8263 289.92 61.1073 287.905 61.1073C285.286 61.1073 282.884 60.5706 280.698 59.4972C278.512 58.4238 276.765 56.925 275.456 55.0009C274.146 53.0762 273.492 50.8577 273.492 48.3443C273.492 46.1449 273.891 44.1811 274.689 42.4534C275.488 40.7252 276.699 39.2589 278.322 38.055C279.946 36.8507 282.014 35.934 284.528 35.306C287.041 34.6775 289.999 34.363 293.403 34.363H297.487V32.1249C297.487 30.9205 297.317 29.8863 296.977 29.0222C296.636 28.1581 296.1 27.4843 295.366 26.9996C294.633 26.5155 293.652 26.2732 292.421 26.2732C291.426 26.2732 290.575 26.4433 289.868 26.7836C289.162 27.1239 288.625 27.6348 288.258 28.3154C287.892 28.9959 287.708 29.86 287.708 30.9071H274.474C274.474 28.9438 274.912 27.1177 275.789 25.4287C276.666 23.7402 277.923 22.2672 279.559 21.0107C281.196 19.7538 283.159 18.7788 285.45 18.0849C287.741 17.3909 290.3 17.0444 293.128 17.0444C296.505 17.0444 299.523 17.6069 302.18 18.7329C304.838 19.8589 306.939 21.5407 308.483 23.7794C310.028 26.018 310.801 28.8258 310.801 32.2033V49.6008C310.801 52.3761 310.957 54.4771 311.272 55.9042C311.586 57.3307 312.031 58.581 312.607 59.6544V60.3221H299.333C298.809 59.2487 298.404 57.9788 298.115 56.5125ZM297.487 41.432H293.324C292.094 41.432 291.053 41.6022 290.202 41.943C289.351 42.2833 288.671 42.7478 288.16 43.3371C287.649 43.9259 287.283 44.5868 287.061 45.32C286.838 46.0531 286.726 46.8254 286.726 47.6369C286.726 48.4227 286.916 49.1228 287.296 49.7384C287.676 50.3535 288.193 50.8314 288.847 51.1717C289.502 51.512 290.235 51.6821 291.046 51.6821C292.513 51.6821 293.763 51.4006 294.797 50.8376C295.831 50.2751 296.623 49.5879 297.173 48.7758C297.278 48.5928 297.382 48.4227 297.487 48.2654V41.432Z" fill="white"/>
<path d="M332.125 0V60.322H318.852V0H332.125Z" fill="white"/>
<path d="M354.238 0V60.322H340.962V0H354.238Z" fill="white"/>
</svg>
